# xmcd CD database file
#
# Track frame offsets:
#	150
#	13945
#	27081
#	43019
#	78487
#	90763
#	102707
#	116904
#	130805
#	143761
#	156724
#	170783
#	184406
#	200637
#	214439
#	229642
#	243214
#	259880
#	274907
#	288383
#
# Disc length: 4026 seconds
#
# Revision: 0
# Processed by: cddbd v1.5.2PL0 Copyright (c) Steve Scherf et al.
# Submitted via: CDex 1.70beta2
#
DISCID=330fb814
DTITLE=Charlie Parker - 40 best [CD1]
DYEAR=1900
DGENRE=Jazz
TTITLE0=Rocker
TTITLE1=Bird feathers
TTITLE2=Easy to love
TTITLE3=Perdido
TTITLE4=Repetition
TTITLE5=Groovin' high
TTITLE6=April in Paris
TTITLE7=Hot house
TTITLE8=What is this thing called love
TTITLE9=Be bop a lula
TTITLE10=I'll remember April
TTITLE11=Crazeology
TTITLE12=I'm in the mood for love
TTITLE13=Parker's mood
TTITLE14=They can't take that away from me
TTITLE15=Ornithology
TTITLE16=East of the Sun (West of the Moon)
TTITLE17=Out of nowhere
TTITLE18=Laura
TTITLE19=Scrapple from the apple
EXTD=
EXTT0=
EXTT1=
EXTT2=
EXTT3=
EXTT4=
EXTT5=
EXTT6=
EXTT7=
EXTT8=
EXTT9=
EXTT10=
EXTT11=
EXTT12=
EXTT13=
EXTT14=
EXTT15=
EXTT16=
EXTT17=
EXTT18=
EXTT19=
PLAYORDER=
